# Made in Blockbench 4.6.4
mtllib materials.mtl

o cube
v 0.06770940255246272 0.05115150280781133 0.06721391646445718
v 0.06770940255246272 0.0620459706512686 -0.05731042079701104
v 0.05681493470900545 -0.07289898175545173 0.05636090536027405
v 0.05681493470900545 -0.06200451391199446 -0.06816343190119417
v -0.05681493470900545 0.07289898175545173 -0.05636090536027405
v -0.05681493470900545 0.06200451391199446 0.06816343190119412
v -0.06770940255246272 -0.05115150280781128 -0.06721391646445718
v -0.06770940255246272 -0.062045970651268545 0.057310420797010986
vt 0 1
vt 1 1
vt 1 0.948780487804878
vt 0 0.948780487804878
vt 0 1
vt 0.9963414634146341 1
vt 0.9963414634146341 0.9524390243902439
vt 0 0.9524390243902439
vt 0 1
vt 1 1
vt 1 0.9567073170731708
vt 0 0.9567073170731708
vt 0 1
vt 1 1
vt 1 0.9682926829268292
vt 0 0.9682926829268292
vt 0 1
vt 1 1
vt 1 0
vt 0 0
vt 0 1
vt 1 1
vt 1 0.9676829268292683
vt 0 0.9676829268292683
vn -1.214306433183765e-17 0.08715574274765814 -0.9961946980917455
vn 0.9961946980917455 -0.08682408883346518 -0.007596123493895976
vn 1.214306433183765e-17 -0.08715574274765814 0.9961946980917455
vn -0.9961946980917455 0.08682408883346518 0.007596123493895976
vn 0.0871557427476582 0.9924038765061041 0.08682408883346511
vn -0.0871557427476582 -0.9924038765061041 -0.08682408883346511
usemtl m_f48c8962-4f7c-7477-3146-6e732983191d
f 4/4/1 7/3/1 5/2/1 2/1/1
f 3/8/2 4/7/2 2/6/2 1/5/2
f 8/12/3 3/11/3 1/10/3 6/9/3
f 7/16/4 8/15/4 6/14/4 5/13/4
f 6/20/5 1/19/5 2/18/5 5/17/5
f 7/24/6 4/23/6 3/22/6 8/21/6